<?xml version="1.0" encoding="UTF-8"?><svg id="a" xmlns="http://www.w3.org/2000/svg" viewBox="0 0 66 66"><defs><style>.b,.c{fill:#6665fe;}.c{fill-rule:evenodd;}</style></defs><g><path class="b" d="M44.74,21.58c-6.33,0-11.47,5.27-11.47,11.78s5.14,11.78,11.47,11.78,11.47-5.27,11.47-11.78-5.14-11.78-11.47-11.78Zm0,21.59c-5.28,0-9.56-4.39-9.56-9.81s4.28-9.81,9.56-9.81,9.56,4.39,9.56,9.81-4.28,9.81-9.56,9.81Z"/><path class="b" d="M48.89,35.77c0,.56-.1,1.07-.29,1.52-.19,.45-.47,.84-.83,1.17-.36,.33-.79,.59-1.29,.78-.5,.2-1.06,.32-1.67,.37l-.2,2.1c0,.05-.02,.1-.04,.14-.02,.04-.06,.07-.12,.1-.06,.03-.14,.05-.25,.06-.1,.02-.24,.02-.4,.02-.2,0-.37,0-.49-.03-.12-.02-.22-.05-.29-.08-.07-.04-.12-.08-.14-.14-.02-.06-.03-.12-.01-.2l.2-1.99c-.27-.04-.53-.09-.77-.15-.24-.06-.46-.13-.66-.21-.2-.08-.37-.15-.51-.23-.14-.08-.25-.16-.32-.23-.07-.08-.13-.19-.16-.33s-.05-.36-.05-.65c0-.22,0-.41,.02-.55,.01-.14,.03-.25,.07-.33,.03-.08,.07-.13,.12-.16,.05-.03,.1-.04,.17-.04,.08,0,.2,.05,.36,.15,.16,.1,.36,.21,.61,.32,.25,.12,.55,.23,.9,.32s.77,.15,1.25,.15c.74,0,1.3-.14,1.66-.43,.36-.28,.54-.66,.54-1.13,0-.31-.08-.57-.23-.77-.16-.2-.36-.38-.62-.53s-.55-.29-.88-.41c-.33-.12-.66-.25-1.01-.39-.34-.14-.68-.3-1.01-.48-.33-.18-.62-.41-.88-.68-.26-.27-.47-.59-.62-.97-.16-.38-.23-.84-.23-1.39,0-.49,.08-.94,.24-1.34,.16-.4,.39-.75,.69-1.05,.3-.3,.67-.54,1.1-.73,.44-.19,.93-.31,1.48-.38l.19-1.97c0-.05,.02-.1,.04-.13,.02-.04,.06-.07,.12-.1,.06-.03,.14-.05,.24-.06,.1-.01,.24-.02,.4-.02,.2,0,.36,0,.49,.03,.13,.02,.23,.05,.3,.08,.07,.04,.11,.08,.13,.14,.02,.06,.03,.12,.03,.2l-.19,1.85c.18,.03,.37,.06,.56,.11,.2,.05,.38,.1,.55,.16,.17,.06,.33,.13,.47,.2,.14,.07,.24,.13,.29,.19,.05,.06,.1,.11,.12,.17,.03,.06,.05,.12,.07,.21,.02,.08,.03,.18,.03,.29s0,.25,0,.4c0,.2,0,.37-.01,.5s-.03,.23-.05,.3c-.03,.07-.05,.11-.09,.14-.03,.02-.07,.03-.11,.03-.08,0-.2-.04-.36-.13-.16-.08-.35-.18-.59-.27-.23-.1-.5-.19-.8-.27-.3-.08-.63-.13-1-.13-.33,0-.61,.03-.85,.1-.24,.07-.43,.16-.57,.27-.15,.12-.25,.26-.32,.42-.07,.16-.1,.34-.1,.54,0,.31,.08,.56,.24,.77,.16,.21,.37,.39,.63,.54,.26,.15,.56,.29,.9,.41,.33,.12,.67,.25,1.02,.39,.35,.14,.69,.3,1.02,.48,.33,.18,.63,.4,.89,.67,.26,.26,.47,.58,.63,.96,.16,.38,.24,.83,.24,1.36Z"/></g><g><path class="c" d="M19.37,28.46c1.21,1.03,2.65,1.64,4.14,1.87v10.48c-1.08,.22-2.11,.73-2.96,1.53-1.5,1.41-2.17,3.42-1.98,5.36h12.36c.19-1.95-.47-3.95-1.97-5.36-.88-.8-1.9-1.3-2.96-1.53v-10.48c1.47-.23,2.9-.84,4.13-1.87,1.04-.88,1.8-1.97,2.32-3.14h-15.4c.53,1.17,1.29,2.27,2.32,3.14Z"/><path class="c" d="M37.22,15.07h2.49v-2.56H9.79v2.56h2.49v2.55h1.18c-1.79,5.06-.23,10.79,3.96,14.08,.63,.53,1.34,.94,2.05,1.29-.71,.38-1.41,.79-2.05,1.29-4.19,3.3-5.75,9.04-3.96,14.09h-1.18v2.55h-2.49v2.57h29.92v-2.57h-2.49v-2.55h-1.19c1.81-5.05,.25-10.78-3.94-14.09-.65-.5-1.35-.91-2.07-1.29,.73-.35,1.42-.76,2.07-1.29,4.19-3.3,5.75-9.02,3.94-14.08h1.19v-2.55Zm-6.66,14.61c-1.02,.8-2.14,1.34-3.32,1.65v3.32c1.18,.32,2.3,.86,3.32,1.67,3.43,2.69,4.66,7.45,3.01,11.55l-.2,.5h-2.55c.01-.05,.02-.1,.03-.16h-12.22c0,.05,.02,.1,.03,.16h-2.54l-.2-.5c-1.67-4.1-.43-8.85,3-11.55,1.01-.81,2.15-1.35,3.34-1.67v-3.32c-1.18-.31-2.32-.85-3.34-1.65-3.43-2.71-4.66-7.46-3-11.55l.2-.51h17.26l.2,.51c1.65,4.09,.41,8.84-3.01,11.55Z"/></g></svg>