<?xml version="1.0" encoding="UTF-8"?><svg id="a" xmlns="http://www.w3.org/2000/svg" viewBox="0 0 66 66"><defs><style>.b{fill:#6665fe;}</style></defs><path class="b" d="M50.73,16.31c-.55-.73-1.41-1.21-2.4-1.21H17.67c-1.66,0-3,1.34-3,3v29.82c0,1.02,.52,1.91,1.3,2.45,.03,.02,.07,.05,.11,.08,.46,.29,1.01,.47,1.6,.47h30.66c1.66,0,3-1.34,3-3V18.09c0-.67-.23-1.29-.6-1.79Zm-21.58,2.52h19.55v7.63H29.15v-7.63Zm-2.04,27.45c0,1.37-1.27,2.16-2.64,2.16h-4.56c-1.37,0-2.69-.79-2.69-2.16V19.34c0-1.37,1.32-2.16,2.69-2.16h4.56c1.37,0,2.64,.79,2.64,2.16v26.93Zm7.03,1.38c0,.61-.49,.52-1.1,.52h-2.8c-.61,0-1.1,.09-1.1-.52v-3.96c0-.61,.49-.52,1.1-.52h2.8c.61,0,1.1-.09,1.1,.52v3.96Zm0-7c0,.61-.49,.52-1.1,.52h-2.8c-.61,0-1.1,.09-1.1-.52v-3.96c0-.61,.49-.52,1.1-.52h2.8c.61,0,1.1-.09,1.1,.52v3.96Zm0-6.97c0,.61-.49,.52-1.1,.52h-2.8c-.61,0-1.1,.09-1.1-.52v-3.96c0-.61,.49-.52,1.1-.52h2.8c.61,0,1.1-.09,1.1,.52v3.96Zm7.39,13.97c0,.61-.49,.52-1.1,.52h-2.8c-.61,0-1.1,.09-1.1-.52v-3.96c0-.61,.49-.52,1.1-.52h2.8c.61,0,1.1-.09,1.1,.52v3.96Zm0-7c0,.61-.49,.52-1.1,.52h-2.8c-.61,0-1.1,.09-1.1-.52v-3.96c0-.61,.49-.52,1.1-.52h2.8c.61,0,1.1-.09,1.1,.52v3.96Zm0-6.97c0,.61-.49,.52-1.1,.52h-2.8c-.61,0-1.1,.09-1.1-.52v-3.96c0-.61,.49-.52,1.1-.52h2.8c.61,0,1.1-.09,1.1,.52v3.96Zm7.26,13.97c0,.61-.49,.52-1.1,.52h-2.8c-.61,0-1.1,.09-1.1-.52v-3.96c0-.61,.49-.52,1.1-.52h2.8c.61,0,1.1-.09,1.1,.52v3.96Zm0-7c0,.61-.49,.52-1.1,.52h-2.8c-.61,0-1.1,.09-1.1-.52v-3.96c0-.61,.49-.52,1.1-.52h2.8c.61,0,1.1-.09,1.1,.52v3.96Zm0-6.97c0,.61-.49,.52-1.1,.52h-2.8c-.61,0-1.1,.09-1.1-.52v-3.96c0-.61,.49-.52,1.1-.52h2.8c.61,0,1.1-.09,1.1,.52v3.96Zm-30.58-7.89v-6.46c0-.93,.76-1.11,1.69-1.11h4.56c.93,0,1.7,.18,1.7,1.11v6.46h-7.95Zm7.95,.7v19.78c0,.93-.76,1.11-1.7,1.11h-4.56c-.93,0-1.69-.18-1.69-1.11V26.5h7.95Z"/></svg>