<?xml version="1.0" encoding="UTF-8"?><svg id="a" xmlns="http://www.w3.org/2000/svg" viewBox="0 0 66 66"><defs><style>.b{fill:#6665fe;}</style></defs><path class="b" d="M38.13,40.79c.99-1.05,1.49-2.37,1.49-3.91,0-1.38-.39-2.52-1.17-3.39-.79-.88-2.31-1.62-4.54-2.19l-.23-.06v-5.99l.42,.17c.94,.38,1.56,1.09,1.84,2.11l2.9-.37c-.26-1.13-.79-2.05-1.56-2.75-.88-.79-1.94-1.23-3.34-1.39l-.27-.03v-1.71h-1.47v1.71l-.28,.03c-1.56,.15-2.83,.7-3.76,1.65-.93,.94-1.4,2.12-1.4,3.51s.42,2.57,1.24,3.53c.83,.97,2.17,1.71,3.97,2.2l.23,.06v6.38l-.44-.2c-.56-.25-1.07-.67-1.52-1.22-.4-.49-.68-1.07-.86-1.72l-3.02,.32c.3,1.55,.92,2.77,1.83,3.63,1.02,.96,2.21,1.49,3.73,1.66l.27,.03v1.83h1.47v-1.89l.27-.04c1.79-.24,3.19-.9,4.19-1.96Zm-5.92-9.98l-.42-.17c-.67-.27-1.19-.64-1.52-1.1-.35-.46-.52-.97-.52-1.52,0-.59,.19-1.14,.57-1.62,.37-.48,.88-.83,1.5-1.02l.4-.13v5.56Zm1.47,3.58l.39,.11c.92,.25,1.59,.62,2.01,1.1,.43,.49,.64,1.09,.64,1.76,0,.75-.25,1.41-.75,1.97-.5,.55-1.14,.9-1.93,1.04l-.36,.06v-6.05Z"/><polygon class="b" points="21.79 53.09 13.67 54.67 15.38 46.57 17.43 48.66 22.29 43.85 24.59 46.21 19.74 51 21.79 53.09"/><polygon class="b" points="44.21 12.91 52.33 11.33 50.62 19.43 48.57 17.34 43.71 22.15 41.41 19.79 46.26 15 44.21 12.91"/><g><path class="b" d="M20.2,41.29c-3.85-5.93-3.15-13.96,2.06-19.13,5.93-5.89,15.53-5.89,21.46-.03l2.12-2.1c-3.42-3.39-7.95-5.26-12.77-5.28-4.87-.02-9.46,1.86-12.92,5.29-3.46,3.43-5.37,8.01-5.39,12.88-.01,3.81,1.13,7.45,3.28,10.51l2.16-2.14Z"/><path class="b" d="M51.25,33.06c.01-3.81-1.13-7.45-3.28-10.51l-2.16,2.14c3.85,5.93,3.15,13.96-2.06,19.13-5.93,5.89-15.53,5.89-21.46,.03l-2.12,2.1c3.42,3.39,7.95,5.26,12.77,5.28,4.87,.02,9.46-1.86,12.92-5.29,3.46-3.43,5.38-8.01,5.39-12.88Z"/></g></svg>