<?xml version="1.0" encoding="utf-8"?>
<!-- Generator: Adobe Illustrator 26.1.0, SVG Export Plug-In . SVG Version: 6.00 Build 0)  -->
<svg version="1.1" id="Layer_1" xmlns="http://www.w3.org/2000/svg" xmlns:xlink="http://www.w3.org/1999/xlink" x="0px" y="0px"
	 viewBox="0 0 246.5 66.7" style="enable-background:new 0 0 246.5 66.7;" xml:space="preserve">
<style type="text/css">
	.st0{fill:#F5F6F7;}
	.st1{fill:#12E7DB;}
</style>
<g>
	<g>
		<g>
			<path class="st0" d="M16.7,42.3c-1.1,0.2-2.7,0.4-6.1,0.4c-4,0-7.6-1-7.6-6.7V25.6c0-5.7,3.6-6.7,7.6-6.7c3.4,0,4.9,0.3,6,0.4
				c0.4,0.1,0.6,0.2,0.6,0.6v2.9c0,0.3-0.3,0.6-0.6,0.6h-6.4c-1.5,0-2,0.5-2,2.1v2.8h8.1c0.3,0,0.6,0.3,0.6,0.6v3
				c0,0.3-0.3,0.6-0.6,0.6H8.3v3.3c0,1.6,0.5,2.1,2,2.1h6.4c0.3,0,0.6,0.3,0.6,0.6v2.9C17.3,42,17.1,42.2,16.7,42.3"/>
			<path class="st0" d="M35.7,42.4h-3.8c-0.3,0-0.6-0.3-0.6-0.7V31.3c0-2.2-0.4-2.9-2.3-2.9c-0.9,0-1.9,0.4-2.9,1v12.3
				c0,0.3-0.3,0.7-0.6,0.7h-3.8c-0.3,0-0.7-0.3-0.7-0.7V25.1c0-0.3,0.3-0.6,0.6-0.6h3.5c0.3,0,0.6,0.3,0.6,0.6v0.8
				c1.7-1.2,3.1-1.6,5.1-1.6c4.5,0,5.5,3.2,5.5,7.1v10.4C36.3,42.1,36,42.4,35.7,42.4"/>
			<path class="st0" d="M49.4,42.4c-0.9,0.2-1.6,0.3-2.5,0.3c-3.4,0-5.3-0.9-5.3-5.3v-9.1l-2.5-0.4c-0.3-0.1-0.7-0.3-0.7-0.7v-2.1
				c0-0.3,0.3-0.7,0.7-0.7h2.5v-2.6c0-0.3,0.3-0.6,0.6-0.6l3.8-0.7h0.1c0.3,0,0.6,0.2,0.6,0.5v3.3h2.6c0.3,0,0.6,0.3,0.6,0.6v2.5
				c0,0.3-0.3,0.6-0.6,0.6h-2.6v9.1c0,1.3,0.1,1.5,1,1.5h1.5c0.4,0,0.7,0.2,0.7,0.5v2.4C50,42.1,49.8,42.4,49.4,42.4"/>
			<path class="st0" d="M62.2,28.4H62c-1.5,0-2.9,0.5-4,1.1v12.2c0,0.3-0.3,0.7-0.6,0.7h-3.8c-0.3,0-0.7-0.3-0.7-0.7V25.1
				c0-0.3,0.3-0.6,0.6-0.6h3.7c0.3,0,0.6,0.3,0.6,0.6v0.6c1.2-1,2.7-1.5,4.2-1.5c0.3,0,0.6,0.3,0.6,0.6v3
				C62.7,28.1,62.5,28.4,62.2,28.4"/>
			<path class="st0" d="M69.9,22.4h-4.1c-0.3,0-0.6-0.3-0.6-0.6v-2.9c0-0.3,0.3-0.6,0.6-0.6h4.1c0.3,0,0.6,0.3,0.6,0.6v2.9
				C70.6,22.2,70.3,22.4,69.9,22.4 M69.8,42.4H66c-0.3,0-0.6-0.3-0.6-0.6V25.1c0-0.3,0.3-0.6,0.6-0.6h3.8c0.3,0,0.6,0.3,0.6,0.6
				v16.7C70.4,42.1,70.2,42.4,69.8,42.4"/>
			<path class="st1" d="M75.6,4.1H40c-3.9,0-7.1,3.8-7.1,8.4v3.7c0,0.9,0.7,1.6,1.6,1.6c0.9,0,1.6-0.7,1.6-1.6v-4.1
				c0-2.4,1.6-4.4,3.6-4.4h35.9c2.1,0,3.9,2.1,3.9,4.7v42.2c0,2.4-1.6,4.4-3.6,4.4H40c-2.1,0-3.9-2.1-3.9-4.7l0-4c0,0,0,0,0,0
				c0-0.9-0.7-1.6-1.6-1.6c-0.9,0-1.6,0.7-1.6,1.6v4c0,4.6,3.2,8.4,7.1,8.4h35.6c3.9,0,7.1-3.8,7.1-8.4V12.5
				C82.7,7.9,79.5,4.1,75.6,4.1"/>
		</g>
		<g>
			<path class="st0" d="M93.1,5.3h-1.5v5.5c0,0.1-0.1,0.2-0.2,0.2h-1.2c-0.1,0-0.2-0.1-0.2-0.2V5.3h-1.5c-0.1,0-0.2-0.1-0.2-0.2v-1
				c0-0.1,0.1-0.2,0.2-0.2h4.7c0.1,0,0.2,0.1,0.2,0.2v1C93.3,5.3,93.2,5.3,93.1,5.3z"/>
			<path class="st0" d="M100.4,11h-1.2c-0.1,0-0.2-0.1-0.2-0.2V6.9c0-0.1,0-0.1,0-0.1c0,0,0,0-0.1,0.1l-0.9,1.6
				c-0.1,0.1-0.2,0.2-0.3,0.2H97c-0.1,0-0.2,0-0.3-0.2l-0.9-1.6c0,0,0-0.1-0.1-0.1c0,0,0,0,0,0.1v3.9c0,0.1-0.1,0.2-0.2,0.2h-1.2
				c-0.1,0-0.2,0-0.2-0.1V4.3c0-0.2,0.1-0.3,0.3-0.3h0.9c0.2,0,0.3,0.1,0.4,0.3l1.4,2.7c0,0.1,0.1,0.1,0.1,0.1c0,0,0.1,0,0.1-0.1
				L99,4.3C99,4.1,99.2,4,99.4,4h0.9c0.2,0,0.3,0.1,0.3,0.3v6.6C100.6,11,100.5,11,100.4,11z"/>
		</g>
	</g>
	<g>
		<g>
			<path class="st1" d="M110.4,42.5h-1.5c-0.3,0-0.6-0.3-0.6-0.6V23.7c0-0.1,0-0.1,0-0.1c0,0,0,0-0.1,0.1l-4.4,9.1
				c-0.3,0.6-0.6,0.9-1.4,0.9H101c-0.8,0-1.1-0.3-1.4-0.9l-4.4-9.1c0-0.1,0-0.1-0.1-0.1s0,0,0,0.1v18.2c0,0.3-0.3,0.6-0.6,0.6h-1.5
				c-0.3,0-0.6-0.3-0.6-0.6V20.6c0-0.5,0.4-0.9,0.9-0.9h2c0.6,0,0.8,0.1,1,0.5l5.1,10.5c0.1,0.3,0.2,0.3,0.4,0.3
				c0.2,0,0.2-0.1,0.4-0.3l5.1-10.5c0.2-0.4,0.4-0.5,1-0.5h2c0.5,0,0.9,0.4,0.9,0.9v21.3C111,42.2,110.7,42.5,110.4,42.5z"/>
			<path class="st1" d="M128.5,26.3L123.5,44c-1,3.3-2.1,4.5-5.6,4.5c-0.9,0-1.9-0.1-2.6-0.3c-0.4-0.1-0.6-0.2-0.6-0.5v-1.1
				c0-0.3,0.2-0.5,0.6-0.5c0,0,0.1,0,0.1,0c0.7,0.1,2.1,0.2,2.7,0.2c1.7,0,2.5-0.5,3-2.6l0.3-1.3h-0.4c-0.9,0-1.7-0.2-2.3-2.1
				l-4.1-14c0-0.1,0-0.2,0-0.2c0-0.3,0.2-0.5,0.6-0.5h1.7c0.2,0,0.5,0.2,0.5,0.5l3.6,13.3c0.2,0.6,0.4,0.7,0.6,0.7h0.5l3.7-14
				c0.1-0.2,0.3-0.5,0.6-0.5h1.7c0.3,0,0.5,0.2,0.5,0.5C128.5,26.2,128.5,26.3,128.5,26.3z"/>
			<path class="st1" d="M150.5,42.5h-1.4c-0.3,0-0.6-0.3-0.6-0.6v-0.7c-1.5,0.9-3,1.5-4.7,1.5c-2.6,0-5-1.1-5-5v-0.4
				c0-3.3,1.9-5,7.4-5h2.3v-1.2c0-2.6-0.9-3.5-3.3-3.5c-2,0-3.5,0.1-4.7,0.2c-0.1,0-0.1,0-0.2,0c-0.3,0-0.6-0.1-0.6-0.5v-1.1
				c0-0.3,0.2-0.5,0.6-0.6c1.3-0.2,2.7-0.4,4.7-0.4c4.3,0,6,2.1,6,5.8v10.7C151.1,42.2,150.8,42.5,150.5,42.5z M148.4,34.3h-2.3
				c-3.7,0-4.7,0.8-4.7,3v0.4c0,2.2,1,2.8,2.8,2.8c1.4,0,2.7-0.4,4.1-1.2V34.3z"/>
			<path class="st1" d="M165.1,42.3c-1,0.2-2.4,0.3-3.8,0.3c-4.2,0-6.5-2.9-6.5-7.4v-2.4c0-4.5,2.3-7.4,6.5-7.4
				c1.4,0,2.8,0.2,3.8,0.3c0.5,0.1,0.6,0.2,0.6,0.7v1.1c0,0.3-0.2,0.5-0.5,0.5c-0.1,0-0.1,0-0.1,0c-1.3-0.2-2.3-0.2-3.8-0.2
				c-2.5,0-3.8,1.6-3.8,5.1v2.4c0,3.4,1.3,5.1,3.8,5.1c1.5,0,2.5-0.1,3.8-0.2c0,0,0.1,0,0.1,0c0.3,0,0.5,0.2,0.5,0.5v1.1
				C165.7,42.1,165.6,42.2,165.1,42.3z"/>
			<path class="st1" d="M178.9,42.3c-1,0.2-2.4,0.3-3.8,0.3c-4.2,0-6.5-2.9-6.5-7.4v-2.4c0-4.5,2.3-7.4,6.5-7.4
				c1.4,0,2.8,0.2,3.8,0.3c0.5,0.1,0.6,0.2,0.6,0.7v1.1c0,0.3-0.2,0.5-0.5,0.5c-0.1,0-0.1,0-0.1,0c-1.3-0.2-2.3-0.2-3.8-0.2
				c-2.5,0-3.8,1.6-3.8,5.1v2.4c0,3.4,1.3,5.1,3.8,5.1c1.5,0,2.5-0.1,3.8-0.2c0,0,0.1,0,0.1,0c0.3,0,0.5,0.2,0.5,0.5v1.1
				C179.6,42.1,179.4,42.2,178.9,42.3z"/>
			<path class="st1" d="M189.2,42.7c-4.5,0-6.8-3-6.8-7.5v-2.3c0-4.5,2.3-7.5,6.8-7.5c4.5,0,6.8,3,6.8,7.5v2.3
				C196.1,39.7,193.7,42.7,189.2,42.7z M193.4,32.9c0-3.1-1.3-5.1-4.1-5.1c-2.8,0-4.1,2-4.1,5.1v2.3c0,3.1,1.2,5.1,4.1,5.1
				c2.8,0,4.1-2,4.1-5.1V32.9z"/>
			<path class="st1" d="M212,42.5h-1.5c-0.3,0-0.6-0.3-0.6-0.6v-0.6c-1.7,0.9-3.1,1.4-4.9,1.4c-3.7,0-5.3-2.3-5.3-6.4V26.2
				c0-0.3,0.3-0.6,0.6-0.6h1.5c0.3,0,0.6,0.3,0.6,0.6v10.1c0,3.1,1,4,3.4,4c1.3,0,2.7-0.5,4.1-1.2V26.2c0-0.3,0.3-0.6,0.6-0.6h1.5
				c0.3,0,0.6,0.3,0.6,0.6v15.6C212.6,42.2,212.3,42.5,212,42.5z"/>
			<path class="st1" d="M229,42.5h-1.5c-0.3,0-0.6-0.3-0.6-0.6V31.8c0-3.1-1-4-3.4-4c-1.3,0-2.7,0.5-4.1,1.2v12.9
				c0,0.3-0.3,0.6-0.6,0.6h-1.5c-0.3,0-0.6-0.3-0.6-0.6V26.2c0-0.3,0.2-0.6,0.6-0.6h1.5c0.3,0,0.6,0.3,0.6,0.6v0.6
				c1.7-0.9,3.1-1.4,4.9-1.4c3.7,0,5.3,2.3,5.3,6.4v10.1C229.7,42.2,229.4,42.5,229,42.5z"/>
			<path class="st1" d="M242.2,42.5c-0.6,0.1-1.4,0.2-2,0.2c-2.8,0-4.2-0.7-4.2-4.1V27.9l-3-0.3c-0.3,0-0.6-0.2-0.6-0.6v-0.8
				c0-0.3,0.2-0.6,0.6-0.6h3v-3c0-0.3,0.2-0.6,0.6-0.6l1.6-0.2c0,0,0.1,0,0.1,0c0.2,0,0.5,0.2,0.5,0.5v3.3h3.3
				c0.3,0,0.6,0.3,0.6,0.6v1c0,0.3-0.3,0.6-0.6,0.6h-3.3v10.7c0,1.7,0.4,1.9,1.7,1.9h1.7c0.4,0,0.6,0.1,0.6,0.4V42
				C242.8,42.3,242.6,42.5,242.2,42.5z"/>
		</g>
	</g>
</g>
</svg>
